<mxfile host="app.diagrams.net" modified="2023-04-03T16:18:58.018Z" agent="Mozilla/5.0 (Windows NT 10.0; Win64; x64) AppleWebKit/537.36 (KHTML, like Gecko) Chrome/111.0.0.0 Safari/537.36" etag="AGDslg_7So0a7Tl72f5_" version="21.1.4" type="device">
  <diagram name="페이지-1" id="afFoDCX4KsRdaPJlqIl1">
    <mxGraphModel dx="2670" dy="1942" grid="1" gridSize="10" guides="1" tooltips="1" connect="1" arrows="1" fold="1" page="1" pageScale="1" pageWidth="827" pageHeight="1169" math="0" shadow="0">
      <root>
        <mxCell id="0" />
        <mxCell id="1" parent="0" />
        <mxCell id="Ar1kpiwQdj3wO_DRQXRN-28" style="edgeStyle=orthogonalEdgeStyle;rounded=0;orthogonalLoop=1;jettySize=auto;html=1;entryX=0;entryY=0.5;entryDx=0;entryDy=0;" edge="1" parent="1" source="WXtx0V1FpSxa1ZeAJPxr-1" target="WXtx0V1FpSxa1ZeAJPxr-2">
          <mxGeometry relative="1" as="geometry" />
        </mxCell>
        <mxCell id="Ar1kpiwQdj3wO_DRQXRN-29" style="edgeStyle=orthogonalEdgeStyle;rounded=0;orthogonalLoop=1;jettySize=auto;html=1;entryX=0;entryY=0.5;entryDx=0;entryDy=0;" edge="1" parent="1" source="WXtx0V1FpSxa1ZeAJPxr-1" target="WXtx0V1FpSxa1ZeAJPxr-3">
          <mxGeometry relative="1" as="geometry" />
        </mxCell>
        <mxCell id="Ar1kpiwQdj3wO_DRQXRN-30" style="edgeStyle=orthogonalEdgeStyle;rounded=0;orthogonalLoop=1;jettySize=auto;html=1;entryX=0;entryY=0.5;entryDx=0;entryDy=0;" edge="1" parent="1" source="WXtx0V1FpSxa1ZeAJPxr-1" target="WXtx0V1FpSxa1ZeAJPxr-4">
          <mxGeometry relative="1" as="geometry" />
        </mxCell>
        <mxCell id="Ar1kpiwQdj3wO_DRQXRN-31" style="edgeStyle=orthogonalEdgeStyle;rounded=0;orthogonalLoop=1;jettySize=auto;html=1;entryX=0;entryY=0.5;entryDx=0;entryDy=0;" edge="1" parent="1" source="WXtx0V1FpSxa1ZeAJPxr-1" target="WXtx0V1FpSxa1ZeAJPxr-5">
          <mxGeometry relative="1" as="geometry" />
        </mxCell>
        <mxCell id="Ar1kpiwQdj3wO_DRQXRN-94" style="edgeStyle=orthogonalEdgeStyle;rounded=0;orthogonalLoop=1;jettySize=auto;html=1;entryX=0;entryY=0.5;entryDx=0;entryDy=0;" edge="1" parent="1" source="WXtx0V1FpSxa1ZeAJPxr-1" target="Ar1kpiwQdj3wO_DRQXRN-91">
          <mxGeometry relative="1" as="geometry" />
        </mxCell>
        <mxCell id="WXtx0V1FpSxa1ZeAJPxr-1" value="Papago&lt;br&gt;Main" style="rounded=1;whiteSpace=wrap;html=1;" parent="1" vertex="1">
          <mxGeometry x="-420" y="120" width="120" height="60" as="geometry" />
        </mxCell>
        <mxCell id="Ar1kpiwQdj3wO_DRQXRN-32" style="edgeStyle=orthogonalEdgeStyle;rounded=0;orthogonalLoop=1;jettySize=auto;html=1;entryX=0;entryY=0.5;entryDx=0;entryDy=0;" edge="1" parent="1" source="WXtx0V1FpSxa1ZeAJPxr-2" target="Ar1kpiwQdj3wO_DRQXRN-8">
          <mxGeometry relative="1" as="geometry" />
        </mxCell>
        <mxCell id="WXtx0V1FpSxa1ZeAJPxr-2" value="웹사이트 번역" style="rounded=0;whiteSpace=wrap;html=1;" parent="1" vertex="1">
          <mxGeometry x="-160" y="-300" width="120" height="60" as="geometry" />
        </mxCell>
        <mxCell id="Ar1kpiwQdj3wO_DRQXRN-45" style="edgeStyle=orthogonalEdgeStyle;rounded=0;orthogonalLoop=1;jettySize=auto;html=1;entryX=0;entryY=0.5;entryDx=0;entryDy=0;" edge="1" parent="1" source="WXtx0V1FpSxa1ZeAJPxr-3" target="Ar1kpiwQdj3wO_DRQXRN-9">
          <mxGeometry relative="1" as="geometry" />
        </mxCell>
        <mxCell id="WXtx0V1FpSxa1ZeAJPxr-3" value="문서 번역" style="rounded=0;whiteSpace=wrap;html=1;" parent="1" vertex="1">
          <mxGeometry x="-160" y="-20" width="120" height="60" as="geometry" />
        </mxCell>
        <mxCell id="Ar1kpiwQdj3wO_DRQXRN-53" style="edgeStyle=orthogonalEdgeStyle;rounded=0;orthogonalLoop=1;jettySize=auto;html=1;entryX=0;entryY=0.5;entryDx=0;entryDy=0;" edge="1" parent="1" source="WXtx0V1FpSxa1ZeAJPxr-4" target="Ar1kpiwQdj3wO_DRQXRN-13">
          <mxGeometry relative="1" as="geometry" />
        </mxCell>
        <mxCell id="Ar1kpiwQdj3wO_DRQXRN-54" style="edgeStyle=orthogonalEdgeStyle;rounded=0;orthogonalLoop=1;jettySize=auto;html=1;entryX=0;entryY=0.5;entryDx=0;entryDy=0;" edge="1" parent="1" source="WXtx0V1FpSxa1ZeAJPxr-4" target="Ar1kpiwQdj3wO_DRQXRN-12">
          <mxGeometry relative="1" as="geometry" />
        </mxCell>
        <mxCell id="Ar1kpiwQdj3wO_DRQXRN-55" style="edgeStyle=orthogonalEdgeStyle;rounded=0;orthogonalLoop=1;jettySize=auto;html=1;entryX=0;entryY=0.5;entryDx=0;entryDy=0;" edge="1" parent="1" source="WXtx0V1FpSxa1ZeAJPxr-4" target="Ar1kpiwQdj3wO_DRQXRN-14">
          <mxGeometry relative="1" as="geometry" />
        </mxCell>
        <mxCell id="WXtx0V1FpSxa1ZeAJPxr-4" value="GYM" style="rounded=0;whiteSpace=wrap;html=1;" parent="1" vertex="1">
          <mxGeometry x="-160" y="260" width="120" height="60" as="geometry" />
        </mxCell>
        <mxCell id="Ar1kpiwQdj3wO_DRQXRN-90" style="edgeStyle=orthogonalEdgeStyle;rounded=0;orthogonalLoop=1;jettySize=auto;html=1;entryX=0;entryY=0.5;entryDx=0;entryDy=0;" edge="1" parent="1" source="WXtx0V1FpSxa1ZeAJPxr-5" target="Ar1kpiwQdj3wO_DRQXRN-89">
          <mxGeometry relative="1" as="geometry" />
        </mxCell>
        <mxCell id="WXtx0V1FpSxa1ZeAJPxr-5" value="사전" style="rounded=0;whiteSpace=wrap;html=1;" parent="1" vertex="1">
          <mxGeometry x="-160" y="560" width="120" height="60" as="geometry" />
        </mxCell>
        <mxCell id="Ar1kpiwQdj3wO_DRQXRN-67" style="edgeStyle=orthogonalEdgeStyle;rounded=0;orthogonalLoop=1;jettySize=auto;html=1;entryX=0.5;entryY=1;entryDx=0;entryDy=0;" edge="1" parent="1" source="Ar1kpiwQdj3wO_DRQXRN-2" target="Ar1kpiwQdj3wO_DRQXRN-43">
          <mxGeometry relative="1" as="geometry" />
        </mxCell>
        <mxCell id="Ar1kpiwQdj3wO_DRQXRN-2" value="추천 사이트 클릭" style="rounded=0;whiteSpace=wrap;html=1;" vertex="1" parent="1">
          <mxGeometry x="324" y="-240" width="126" height="60" as="geometry" />
        </mxCell>
        <mxCell id="Ar1kpiwQdj3wO_DRQXRN-40" style="edgeStyle=orthogonalEdgeStyle;rounded=0;orthogonalLoop=1;jettySize=auto;html=1;entryX=0.5;entryY=0;entryDx=0;entryDy=0;" edge="1" parent="1" source="Ar1kpiwQdj3wO_DRQXRN-4" target="Ar1kpiwQdj3wO_DRQXRN-11">
          <mxGeometry relative="1" as="geometry" />
        </mxCell>
        <mxCell id="Ar1kpiwQdj3wO_DRQXRN-4" value="번역" style="rounded=0;whiteSpace=wrap;html=1;" vertex="1" parent="1">
          <mxGeometry x="730" y="-440" width="120" height="60" as="geometry" />
        </mxCell>
        <mxCell id="Ar1kpiwQdj3wO_DRQXRN-73" style="edgeStyle=orthogonalEdgeStyle;rounded=0;orthogonalLoop=1;jettySize=auto;html=1;" edge="1" parent="1" source="Ar1kpiwQdj3wO_DRQXRN-5" target="Ar1kpiwQdj3wO_DRQXRN-11">
          <mxGeometry relative="1" as="geometry" />
        </mxCell>
        <mxCell id="Ar1kpiwQdj3wO_DRQXRN-5" value="원본" style="rounded=0;whiteSpace=wrap;html=1;" vertex="1" parent="1">
          <mxGeometry x="730" y="-320" width="120" height="60" as="geometry" />
        </mxCell>
        <mxCell id="Ar1kpiwQdj3wO_DRQXRN-42" style="edgeStyle=orthogonalEdgeStyle;rounded=0;orthogonalLoop=1;jettySize=auto;html=1;" edge="1" parent="1" source="Ar1kpiwQdj3wO_DRQXRN-6" target="Ar1kpiwQdj3wO_DRQXRN-11">
          <mxGeometry relative="1" as="geometry" />
        </mxCell>
        <mxCell id="Ar1kpiwQdj3wO_DRQXRN-6" value="원본/번역" style="rounded=0;whiteSpace=wrap;html=1;" vertex="1" parent="1">
          <mxGeometry x="730" y="-200" width="120" height="60" as="geometry" />
        </mxCell>
        <mxCell id="Ar1kpiwQdj3wO_DRQXRN-34" style="edgeStyle=orthogonalEdgeStyle;rounded=0;orthogonalLoop=1;jettySize=auto;html=1;entryX=0;entryY=0.5;entryDx=0;entryDy=0;" edge="1" parent="1" source="Ar1kpiwQdj3wO_DRQXRN-8" target="Ar1kpiwQdj3wO_DRQXRN-2">
          <mxGeometry relative="1" as="geometry" />
        </mxCell>
        <mxCell id="Ar1kpiwQdj3wO_DRQXRN-64" style="edgeStyle=orthogonalEdgeStyle;rounded=0;orthogonalLoop=1;jettySize=auto;html=1;entryX=0.5;entryY=0;entryDx=0;entryDy=0;" edge="1" parent="1" source="Ar1kpiwQdj3wO_DRQXRN-8" target="Ar1kpiwQdj3wO_DRQXRN-61">
          <mxGeometry relative="1" as="geometry" />
        </mxCell>
        <mxCell id="Ar1kpiwQdj3wO_DRQXRN-8" value="번역 언어 설정" style="rounded=0;whiteSpace=wrap;html=1;" vertex="1" parent="1">
          <mxGeometry x="90" y="-300" width="120" height="60" as="geometry" />
        </mxCell>
        <mxCell id="Ar1kpiwQdj3wO_DRQXRN-46" style="edgeStyle=orthogonalEdgeStyle;rounded=0;orthogonalLoop=1;jettySize=auto;html=1;entryX=0;entryY=0.5;entryDx=0;entryDy=0;" edge="1" parent="1" source="Ar1kpiwQdj3wO_DRQXRN-9" target="Ar1kpiwQdj3wO_DRQXRN-62">
          <mxGeometry relative="1" as="geometry">
            <mxPoint x="320" y="10" as="targetPoint" />
          </mxGeometry>
        </mxCell>
        <mxCell id="Ar1kpiwQdj3wO_DRQXRN-9" value="번역 언어 설정" style="rounded=0;whiteSpace=wrap;html=1;" vertex="1" parent="1">
          <mxGeometry x="80" y="-20" width="120" height="60" as="geometry" />
        </mxCell>
        <mxCell id="Ar1kpiwQdj3wO_DRQXRN-48" style="edgeStyle=orthogonalEdgeStyle;rounded=0;orthogonalLoop=1;jettySize=auto;html=1;entryX=0;entryY=0.5;entryDx=0;entryDy=0;" edge="1" parent="1" target="Ar1kpiwQdj3wO_DRQXRN-47">
          <mxGeometry relative="1" as="geometry">
            <mxPoint x="440" y="10" as="sourcePoint" />
          </mxGeometry>
        </mxCell>
        <mxCell id="Ar1kpiwQdj3wO_DRQXRN-11" value="번역완료" style="shape=document;whiteSpace=wrap;html=1;boundedLbl=1;" vertex="1" parent="1">
          <mxGeometry x="980" y="-330" width="120" height="80" as="geometry" />
        </mxCell>
        <mxCell id="Ar1kpiwQdj3wO_DRQXRN-79" style="edgeStyle=orthogonalEdgeStyle;rounded=0;orthogonalLoop=1;jettySize=auto;html=1;" edge="1" parent="1" source="Ar1kpiwQdj3wO_DRQXRN-12" target="Ar1kpiwQdj3wO_DRQXRN-78">
          <mxGeometry relative="1" as="geometry" />
        </mxCell>
        <mxCell id="Ar1kpiwQdj3wO_DRQXRN-12" value="홈" style="rounded=0;whiteSpace=wrap;html=1;" vertex="1" parent="1">
          <mxGeometry x="80" y="110" width="120" height="60" as="geometry" />
        </mxCell>
        <mxCell id="Ar1kpiwQdj3wO_DRQXRN-51" style="edgeStyle=orthogonalEdgeStyle;rounded=0;orthogonalLoop=1;jettySize=auto;html=1;entryX=0.5;entryY=0;entryDx=0;entryDy=0;" edge="1" parent="1" source="Ar1kpiwQdj3wO_DRQXRN-13" target="Ar1kpiwQdj3wO_DRQXRN-49">
          <mxGeometry relative="1" as="geometry" />
        </mxCell>
        <mxCell id="Ar1kpiwQdj3wO_DRQXRN-13" value="트레이닝" style="rounded=0;whiteSpace=wrap;html=1;" vertex="1" parent="1">
          <mxGeometry x="80" y="260" width="120" height="60" as="geometry" />
        </mxCell>
        <mxCell id="Ar1kpiwQdj3wO_DRQXRN-52" style="edgeStyle=orthogonalEdgeStyle;rounded=0;orthogonalLoop=1;jettySize=auto;html=1;entryX=0.5;entryY=1;entryDx=0;entryDy=0;" edge="1" parent="1" source="Ar1kpiwQdj3wO_DRQXRN-14" target="Ar1kpiwQdj3wO_DRQXRN-49">
          <mxGeometry relative="1" as="geometry">
            <mxPoint x="420" y="390" as="targetPoint" />
          </mxGeometry>
        </mxCell>
        <mxCell id="Ar1kpiwQdj3wO_DRQXRN-14" value="MY" style="rounded=0;whiteSpace=wrap;html=1;" vertex="1" parent="1">
          <mxGeometry x="80" y="400" width="120" height="60" as="geometry" />
        </mxCell>
        <mxCell id="Ar1kpiwQdj3wO_DRQXRN-15" value="좋아요/나빠요&lt;br&gt;반응달기" style="rounded=0;whiteSpace=wrap;html=1;" vertex="1" parent="1">
          <mxGeometry x="590" y="60" width="120" height="60" as="geometry" />
        </mxCell>
        <mxCell id="Ar1kpiwQdj3wO_DRQXRN-85" style="edgeStyle=orthogonalEdgeStyle;rounded=0;orthogonalLoop=1;jettySize=auto;html=1;entryX=0.5;entryY=1;entryDx=0;entryDy=0;" edge="1" parent="1" source="Ar1kpiwQdj3wO_DRQXRN-16" target="Ar1kpiwQdj3wO_DRQXRN-78">
          <mxGeometry relative="1" as="geometry">
            <Array as="points">
              <mxPoint x="650" y="230" />
              <mxPoint x="394" y="230" />
            </Array>
          </mxGeometry>
        </mxCell>
        <mxCell id="Ar1kpiwQdj3wO_DRQXRN-16" value="건너뛰기" style="rounded=0;whiteSpace=wrap;html=1;" vertex="1" parent="1">
          <mxGeometry x="590" y="140" width="120" height="60" as="geometry" />
        </mxCell>
        <mxCell id="Ar1kpiwQdj3wO_DRQXRN-17" value="트레이닝하기" style="rounded=0;whiteSpace=wrap;html=1;" vertex="1" parent="1">
          <mxGeometry x="990" y="180" width="120" height="60" as="geometry" />
        </mxCell>
        <mxCell id="Ar1kpiwQdj3wO_DRQXRN-68" style="edgeStyle=orthogonalEdgeStyle;rounded=0;orthogonalLoop=1;jettySize=auto;html=1;entryX=0;entryY=0.5;entryDx=0;entryDy=0;" edge="1" parent="1" source="Ar1kpiwQdj3wO_DRQXRN-43" target="Ar1kpiwQdj3wO_DRQXRN-4">
          <mxGeometry relative="1" as="geometry" />
        </mxCell>
        <mxCell id="Ar1kpiwQdj3wO_DRQXRN-69" style="edgeStyle=orthogonalEdgeStyle;rounded=0;orthogonalLoop=1;jettySize=auto;html=1;entryX=0;entryY=0.5;entryDx=0;entryDy=0;" edge="1" parent="1" source="Ar1kpiwQdj3wO_DRQXRN-43" target="Ar1kpiwQdj3wO_DRQXRN-5">
          <mxGeometry relative="1" as="geometry" />
        </mxCell>
        <mxCell id="Ar1kpiwQdj3wO_DRQXRN-70" style="edgeStyle=orthogonalEdgeStyle;rounded=0;orthogonalLoop=1;jettySize=auto;html=1;entryX=0;entryY=0.5;entryDx=0;entryDy=0;" edge="1" parent="1" source="Ar1kpiwQdj3wO_DRQXRN-43" target="Ar1kpiwQdj3wO_DRQXRN-6">
          <mxGeometry relative="1" as="geometry" />
        </mxCell>
        <mxCell id="Ar1kpiwQdj3wO_DRQXRN-43" value="검색" style="shape=parallelogram;perimeter=parallelogramPerimeter;whiteSpace=wrap;html=1;fixedSize=1;" vertex="1" parent="1">
          <mxGeometry x="520" y="-320" width="120" height="60" as="geometry" />
        </mxCell>
        <mxCell id="Ar1kpiwQdj3wO_DRQXRN-47" value="번역완료" style="shape=document;whiteSpace=wrap;html=1;boundedLbl=1;" vertex="1" parent="1">
          <mxGeometry x="810" y="-30" width="120" height="80" as="geometry" />
        </mxCell>
        <mxCell id="Ar1kpiwQdj3wO_DRQXRN-58" style="edgeStyle=orthogonalEdgeStyle;rounded=0;orthogonalLoop=1;jettySize=auto;html=1;entryX=0;entryY=0.5;entryDx=0;entryDy=0;" edge="1" parent="1" source="Ar1kpiwQdj3wO_DRQXRN-49" target="Ar1kpiwQdj3wO_DRQXRN-17">
          <mxGeometry relative="1" as="geometry" />
        </mxCell>
        <mxCell id="Ar1kpiwQdj3wO_DRQXRN-59" style="edgeStyle=orthogonalEdgeStyle;rounded=0;orthogonalLoop=1;jettySize=auto;html=1;entryX=0;entryY=0.5;entryDx=0;entryDy=0;" edge="1" parent="1" source="Ar1kpiwQdj3wO_DRQXRN-49" target="Ar1kpiwQdj3wO_DRQXRN-86">
          <mxGeometry relative="1" as="geometry">
            <mxPoint x="800" y="360" as="targetPoint" />
          </mxGeometry>
        </mxCell>
        <mxCell id="Ar1kpiwQdj3wO_DRQXRN-60" style="edgeStyle=orthogonalEdgeStyle;rounded=0;orthogonalLoop=1;jettySize=auto;html=1;entryX=0;entryY=0.5;entryDx=0;entryDy=0;" edge="1" parent="1" source="Ar1kpiwQdj3wO_DRQXRN-49" target="Ar1kpiwQdj3wO_DRQXRN-88">
          <mxGeometry relative="1" as="geometry">
            <mxPoint x="800" y="450" as="targetPoint" />
          </mxGeometry>
        </mxCell>
        <mxCell id="Ar1kpiwQdj3wO_DRQXRN-49" value="네이버&lt;br&gt;로그인" style="rhombus;whiteSpace=wrap;html=1;" vertex="1" parent="1">
          <mxGeometry x="334" y="320" width="160" height="80" as="geometry" />
        </mxCell>
        <mxCell id="Ar1kpiwQdj3wO_DRQXRN-75" style="edgeStyle=orthogonalEdgeStyle;rounded=0;orthogonalLoop=1;jettySize=auto;html=1;entryX=0.5;entryY=0;entryDx=0;entryDy=0;" edge="1" parent="1" source="Ar1kpiwQdj3wO_DRQXRN-61" target="Ar1kpiwQdj3wO_DRQXRN-43">
          <mxGeometry relative="1" as="geometry" />
        </mxCell>
        <mxCell id="Ar1kpiwQdj3wO_DRQXRN-61" value="웹 사이트 입력" style="shape=parallelogram;perimeter=parallelogramPerimeter;whiteSpace=wrap;html=1;fixedSize=1;" vertex="1" parent="1">
          <mxGeometry x="324" y="-390" width="146" height="60" as="geometry" />
        </mxCell>
        <mxCell id="Ar1kpiwQdj3wO_DRQXRN-62" value="파일 첨부하기" style="shape=parallelogram;perimeter=parallelogramPerimeter;whiteSpace=wrap;html=1;fixedSize=1;" vertex="1" parent="1">
          <mxGeometry x="330" y="-20" width="160" height="60" as="geometry" />
        </mxCell>
        <mxCell id="Ar1kpiwQdj3wO_DRQXRN-80" style="edgeStyle=orthogonalEdgeStyle;rounded=0;orthogonalLoop=1;jettySize=auto;html=1;entryX=0;entryY=0.5;entryDx=0;entryDy=0;" edge="1" parent="1" source="Ar1kpiwQdj3wO_DRQXRN-78" target="Ar1kpiwQdj3wO_DRQXRN-15">
          <mxGeometry relative="1" as="geometry" />
        </mxCell>
        <mxCell id="Ar1kpiwQdj3wO_DRQXRN-81" style="edgeStyle=orthogonalEdgeStyle;rounded=0;orthogonalLoop=1;jettySize=auto;html=1;entryX=0;entryY=0.5;entryDx=0;entryDy=0;" edge="1" parent="1" source="Ar1kpiwQdj3wO_DRQXRN-78" target="Ar1kpiwQdj3wO_DRQXRN-16">
          <mxGeometry relative="1" as="geometry" />
        </mxCell>
        <mxCell id="Ar1kpiwQdj3wO_DRQXRN-78" value="오늘의 문장&lt;br&gt;보여주기" style="rounded=0;whiteSpace=wrap;html=1;" vertex="1" parent="1">
          <mxGeometry x="334" y="110" width="120" height="60" as="geometry" />
        </mxCell>
        <mxCell id="Ar1kpiwQdj3wO_DRQXRN-86" value="참여내역" style="shape=document;whiteSpace=wrap;html=1;boundedLbl=1;" vertex="1" parent="1">
          <mxGeometry x="990" y="320" width="120" height="80" as="geometry" />
        </mxCell>
        <mxCell id="Ar1kpiwQdj3wO_DRQXRN-88" value="월간추이" style="shape=document;whiteSpace=wrap;html=1;boundedLbl=1;" vertex="1" parent="1">
          <mxGeometry x="990" y="470" width="120" height="80" as="geometry" />
        </mxCell>
        <mxCell id="Ar1kpiwQdj3wO_DRQXRN-89" value="네이버 사전&lt;br&gt;웹 사이트로 이동" style="rounded=0;whiteSpace=wrap;html=1;" vertex="1" parent="1">
          <mxGeometry x="75" y="550" width="150" height="80" as="geometry" />
        </mxCell>
        <mxCell id="Ar1kpiwQdj3wO_DRQXRN-95" style="edgeStyle=orthogonalEdgeStyle;rounded=0;orthogonalLoop=1;jettySize=auto;html=1;entryX=0;entryY=0.5;entryDx=0;entryDy=0;" edge="1" parent="1" source="Ar1kpiwQdj3wO_DRQXRN-91" target="Ar1kpiwQdj3wO_DRQXRN-92">
          <mxGeometry relative="1" as="geometry" />
        </mxCell>
        <mxCell id="Ar1kpiwQdj3wO_DRQXRN-91" value="번역 언어 설정" style="rounded=0;whiteSpace=wrap;html=1;" vertex="1" parent="1">
          <mxGeometry x="-160" y="790" width="120" height="60" as="geometry" />
        </mxCell>
        <mxCell id="Ar1kpiwQdj3wO_DRQXRN-96" style="edgeStyle=orthogonalEdgeStyle;rounded=0;orthogonalLoop=1;jettySize=auto;html=1;entryX=0;entryY=0.5;entryDx=0;entryDy=0;" edge="1" parent="1" source="Ar1kpiwQdj3wO_DRQXRN-92" target="Ar1kpiwQdj3wO_DRQXRN-93">
          <mxGeometry relative="1" as="geometry" />
        </mxCell>
        <mxCell id="Ar1kpiwQdj3wO_DRQXRN-92" value="번역할 단어/문장 입력" style="rounded=0;whiteSpace=wrap;html=1;" vertex="1" parent="1">
          <mxGeometry x="80" y="790" width="120" height="60" as="geometry" />
        </mxCell>
        <mxCell id="Ar1kpiwQdj3wO_DRQXRN-99" style="edgeStyle=orthogonalEdgeStyle;rounded=0;orthogonalLoop=1;jettySize=auto;html=1;" edge="1" parent="1" source="Ar1kpiwQdj3wO_DRQXRN-93" target="Ar1kpiwQdj3wO_DRQXRN-97">
          <mxGeometry relative="1" as="geometry" />
        </mxCell>
        <mxCell id="Ar1kpiwQdj3wO_DRQXRN-100" style="edgeStyle=orthogonalEdgeStyle;rounded=0;orthogonalLoop=1;jettySize=auto;html=1;entryX=0;entryY=0.5;entryDx=0;entryDy=0;" edge="1" parent="1" source="Ar1kpiwQdj3wO_DRQXRN-93" target="Ar1kpiwQdj3wO_DRQXRN-98">
          <mxGeometry relative="1" as="geometry" />
        </mxCell>
        <mxCell id="Ar1kpiwQdj3wO_DRQXRN-93" value="번역된 문장 출력" style="shape=document;whiteSpace=wrap;html=1;boundedLbl=1;" vertex="1" parent="1">
          <mxGeometry x="354" y="780" width="120" height="80" as="geometry" />
        </mxCell>
        <mxCell id="Ar1kpiwQdj3wO_DRQXRN-102" style="edgeStyle=orthogonalEdgeStyle;rounded=0;orthogonalLoop=1;jettySize=auto;html=1;entryX=0.5;entryY=0;entryDx=0;entryDy=0;" edge="1" parent="1" source="Ar1kpiwQdj3wO_DRQXRN-97" target="Ar1kpiwQdj3wO_DRQXRN-101">
          <mxGeometry relative="1" as="geometry" />
        </mxCell>
        <mxCell id="Ar1kpiwQdj3wO_DRQXRN-97" value="번역 수정" style="rounded=0;whiteSpace=wrap;html=1;" vertex="1" parent="1">
          <mxGeometry x="590" y="720" width="120" height="60" as="geometry" />
        </mxCell>
        <mxCell id="Ar1kpiwQdj3wO_DRQXRN-103" style="edgeStyle=orthogonalEdgeStyle;rounded=0;orthogonalLoop=1;jettySize=auto;html=1;entryX=0.5;entryY=1;entryDx=0;entryDy=0;" edge="1" parent="1" source="Ar1kpiwQdj3wO_DRQXRN-98" target="Ar1kpiwQdj3wO_DRQXRN-101">
          <mxGeometry relative="1" as="geometry" />
        </mxCell>
        <mxCell id="Ar1kpiwQdj3wO_DRQXRN-98" value="번역 평가" style="rounded=0;whiteSpace=wrap;html=1;" vertex="1" parent="1">
          <mxGeometry x="590" y="850" width="120" height="60" as="geometry" />
        </mxCell>
        <mxCell id="Ar1kpiwQdj3wO_DRQXRN-104" style="edgeStyle=orthogonalEdgeStyle;rounded=0;orthogonalLoop=1;jettySize=auto;html=1;entryX=0.5;entryY=1;entryDx=0;entryDy=0;exitX=1;exitY=0.5;exitDx=0;exitDy=0;" edge="1" parent="1" source="Ar1kpiwQdj3wO_DRQXRN-101" target="Ar1kpiwQdj3wO_DRQXRN-91">
          <mxGeometry relative="1" as="geometry">
            <Array as="points">
              <mxPoint x="990" y="1010" />
              <mxPoint x="-100" y="1010" />
            </Array>
          </mxGeometry>
        </mxCell>
        <mxCell id="Ar1kpiwQdj3wO_DRQXRN-101" value="번역할 단어/ 문장 삭제" style="rhombus;whiteSpace=wrap;html=1;" vertex="1" parent="1">
          <mxGeometry x="800" y="770" width="190" height="80" as="geometry" />
        </mxCell>
      </root>
    </mxGraphModel>
  </diagram>
</mxfile>
